<svg width="42" height="40" viewBox="0 0 42 40" fill="none" xmlns="http://www.w3.org/2000/svg">
<path d="M0.5394 18.3429L12.0823 2.2C13.0537 0.828572 14.6251 0 16.3108 0C20.568 0 23.0251 4.8 20.568 8.25715L12.1966 20L20.568 31.7429C23.0537 35.2 20.568 40 16.3108 40C14.6251 40 13.0251 39.1715 12.0537 37.8L0.510828 21.6572C-0.174887 20.6572 -0.174885 19.3429 0.5394 18.3429Z" fill="#BCD3FF"/>
<path d="M20.5394 18.3429L32.0537 2.2C33.0537 0.828572 34.6251 0 36.3108 0C40.568 0 43.0537 4.8 40.568 8.25715L32.1966 20L40.568 31.7429C43.0537 35.2 40.568 40 36.3108 40C34.6251 40 33.0251 39.1715 32.0537 37.8L20.5108 21.6572C19.8251 20.6572 19.8251 19.3429 20.5394 18.3429Z" fill="#BCD3FF"/>
</svg>
