<svg width="38" height="44" viewBox="0 0 38 44" fill="none" xmlns="http://www.w3.org/2000/svg">
<path fill-rule="evenodd" clip-rule="evenodd" d="M4.38461 2.93333C3.57743 2.93333 2.92308 3.58998 2.92308 4.4V39.6C2.92308 40.41 3.57743 41.0667 4.38462 41.0667H33.6154C34.4226 41.0667 35.0769 40.41 35.0769 39.6V4.4C35.0769 3.58998 34.4226 2.93333 33.6154 2.93333H4.38461ZM0 4.4C0 1.96995 1.96306 0 4.38461 0H33.6154C36.0369 0 38 1.96995 38 4.4V39.6C38 42.0301 36.0369 44 33.6154 44H4.38462C1.96306 44 0 42.0301 0 39.6V4.4ZM11.6923 5.86667L11.6923 13.2C11.6923 17.2501 14.9641 20.5333 19 20.5333C23.0359 20.5333 26.3077 17.2501 26.3077 13.2L26.3077 5.86667L29.2308 5.86667L29.2308 13.2C29.2308 18.8701 24.6503 23.4667 19 23.4667C13.3497 23.4667 8.76923 18.8701 8.76923 13.2L8.76923 5.86667H11.6923Z" fill="#75A4FF"/>
</svg>
