<svg width="44" height="44" viewBox="0 0 44 44" fill="none" xmlns="http://www.w3.org/2000/svg">
<path d="M22 13.5148L24.8284 16.3432L19.1716 22.0001L24.8284 27.6569L22 30.4853L13.5147 22.0001L22 13.5148Z" fill="#75A4FF"/>
<path fill-rule="evenodd" clip-rule="evenodd" d="M22 0C34.1503 4.76837e-07 44 9.84974 44 22C44 34.1503 34.1503 44 22 44C9.84973 44 -5.96046e-07 34.1503 0 22C4.76837e-07 9.84974 9.84974 -5.96046e-07 22 0ZM4 22C4 12.0589 12.0589 4 22 4C31.9411 4 40 12.0589 40 22C40 31.9411 31.9411 40 22 40C12.0589 40 4 31.9411 4 22Z" fill="#75A4FF"/>
</svg>
