<svg width="74" height="56" viewBox="0 0 74 56" fill="none" xmlns="http://www.w3.org/2000/svg">
<g opacity="0.5">
<path d="M12.3333 18.6667C12.3333 16.9484 13.7138 15.5556 15.4167 15.5556H27.75C29.4529 15.5556 30.8333 16.9484 30.8333 18.6667C30.8333 20.3849 29.4529 21.7778 27.75 21.7778H15.4167C13.7138 21.7778 12.3333 20.3849 12.3333 18.6667Z" fill="#FE7A00"/>
<path fill-rule="evenodd" clip-rule="evenodd" d="M12.3333 0C5.52182 0 0 5.57157 0 12.4444V43.5556C0 50.4284 5.52182 56 12.3333 56H61.6667C68.4782 56 74 50.4284 74 43.5556V12.4444C74 5.57157 68.4782 0 61.6667 0H12.3333ZM61.6667 6.22222H12.3333C8.92758 6.22222 6.16667 9.00801 6.16667 12.4444V34.2222H67.8333V12.4444C67.8333 9.00801 65.0724 6.22222 61.6667 6.22222ZM67.8333 40.4444H6.16667V43.5556C6.16667 46.992 8.92758 49.7778 12.3333 49.7778H61.6667C65.0724 49.7778 67.8333 46.992 67.8333 43.5556V40.4444Z" fill="#FE7A00"/>
</g>
</svg>
