<svg width="56" height="57" viewBox="0 0 56 57" fill="none" xmlns="http://www.w3.org/2000/svg">
<path fill-rule="evenodd" clip-rule="evenodd" d="M16.3493 1.2078C14.6602 2.98876 13.4915 5.48649 13.2011 7.93547L12.9447 10.1016H10.2049C8.33963 10.1016 7.29522 10.3063 6.93332 10.7424C6.27671 11.5334 6.67726 13.7074 7.85739 15.7568C8.3269 16.5723 8.63434 17.3159 8.54123 17.409C8.44768 17.5026 7.31322 18.1201 6.01978 18.7811C4.72677 19.4425 3.12237 20.6754 2.45479 21.5208C0.768259 23.6575 -0.283186 28.0293 0.0672956 31.4498C1.18901 42.4013 11.2524 56.1983 18.118 56.1983C20.1651 56.1983 22.9545 54.7134 25.5914 52.2196L28 49.9415L30.4086 52.2196C33.0455 54.7134 35.8349 56.1983 37.882 56.1983C44.7476 56.1983 54.811 42.4013 55.9327 31.4498C56.2832 28.0293 55.2317 23.6575 53.5452 21.5208C52.8776 20.6754 51.2732 19.4425 49.9802 18.7811C48.6868 18.1201 47.5523 17.5026 47.4588 17.409C47.3657 17.3159 47.6731 16.5723 48.1426 15.7568C49.3227 13.7074 49.7233 11.5334 49.0667 10.7424C48.7048 10.3063 47.6604 10.1016 45.7951 10.1016H43.0553L42.7989 7.93547C42.4005 4.57208 39.5677 0 37.882 0C36.1964 0 33.3635 4.57208 32.9652 7.93547L32.7087 10.1016H28H23.2913L23.0348 7.93547C22.6365 4.57208 19.8036 0 18.118 0C17.7754 0 16.9791 0.543291 16.3493 1.2078ZM18.985 5.68764C19.3833 6.45756 19.6552 8.13707 19.6552 9.82447C19.6552 14.2889 20.0294 14.6355 23.6695 13.5449C25.6577 12.9494 26.0684 13.1791 25.3652 14.4932C24.5606 15.9966 22.2733 16.6896 18.118 16.6896C13.9627 16.6896 11.6754 15.9966 10.8707 14.4932C10.1676 13.1791 10.5782 12.9494 12.5665 13.5449C16.2066 14.6355 16.5808 14.2889 16.5808 9.82447C16.5808 7.36759 17.4227 4.392 18.118 4.392C18.2265 4.392 18.6165 4.97526 18.985 5.68764ZM38.749 5.68764C39.1473 6.45756 39.4192 8.13707 39.4192 9.82447C39.4192 14.2889 39.7934 14.6355 43.4335 13.5449C45.4218 12.9494 45.8324 13.1791 45.1293 14.4932C44.3246 15.9966 42.0373 16.6896 37.882 16.6896C33.7267 16.6896 31.4394 15.9966 30.6348 14.4932C29.9316 13.1791 30.3423 12.9494 32.3305 13.5449C35.9706 14.6355 36.3448 14.2889 36.3448 9.82447C36.3448 7.36759 37.1868 4.392 37.882 4.392C37.9905 4.392 38.3805 4.97526 38.749 5.68764ZM28.4392 17.1288C28.4392 17.3704 28.2416 17.568 28 17.568C27.7584 17.568 27.5608 17.3704 27.5608 17.1288C27.5608 16.8873 27.7584 16.6896 28 16.6896C28.2416 16.6896 28.4392 16.8873 28.4392 17.1288ZM23.341 20.219C27.3351 20.7961 29.799 21.9372 31.2993 23.9039C33.1536 26.3358 33.3424 30.7638 31.8008 35.6692C29.0545 44.4071 22.3659 52.6975 18.0578 52.7023C13.8011 52.7076 6.62236 43.6829 4.10882 35.1659C3.3042 32.4402 3.18123 27.439 3.87341 25.612C4.95428 22.7585 7.87277 20.8989 12.2529 20.2717C16.1078 19.7201 19.7694 19.7025 23.341 20.219ZM43.2078 20.2388C48.1856 20.931 50.9943 22.6232 52.1266 25.612C52.8188 27.439 52.6958 32.4402 51.8912 35.1659C49.404 43.5928 42.1993 52.704 38.023 52.704C36.0211 52.704 33.6336 51.173 31.2861 48.3828L30.2114 47.1056L32.3362 42.9318C34.4409 38.7976 35.6289 35.0925 36.1335 31.0853C36.3716 29.1972 36.4682 29.0571 37.2127 29.5217C37.8477 29.9183 38.1894 29.9003 38.7437 29.44C39.2901 28.9868 39.4271 28.2199 39.3287 26.1724C39.2009 23.5214 39.1877 23.4972 37.882 23.4972C36.647 23.4972 36.5508 23.6202 36.3448 25.4644L36.1252 27.4316L35.6061 25.46C35.3206 24.3756 34.5928 22.7602 33.9889 21.8704L32.8914 20.2528L34.5081 20.082C37.7797 19.7372 39.8733 19.775 43.2078 20.2388ZM7.00622 23.8047C6.22708 24.5838 6.34127 28.3473 7.16917 29.1756C8.64005 30.6461 9.99279 29.3201 9.99279 26.4087C9.99279 24.2557 9.44378 23.2776 8.23598 23.2776C7.84949 23.2776 7.29609 23.5148 7.00622 23.8047ZM16.8939 23.5504C16.7218 23.7225 16.5808 24.9918 16.5808 26.3713C16.5808 29.1871 17.3872 30.4032 18.7039 29.5727C19.2621 29.2204 19.4356 28.4461 19.4356 26.3041C19.4356 23.6259 19.3846 23.4911 18.3213 23.3672C17.7082 23.2956 17.0657 23.3782 16.8939 23.5504ZM26.7702 23.8047C25.9911 24.5838 26.1053 28.3473 26.9332 29.1756C28.4041 30.6461 29.7568 29.3201 29.7568 26.4087C29.7568 24.2557 29.2078 23.2776 28 23.2776C27.6135 23.2776 27.0601 23.5148 26.7702 23.8047ZM46.5343 23.8047C45.7551 24.5838 45.8693 28.3473 46.6972 29.1756C48.1681 30.6461 49.5208 29.3201 49.5208 26.4087C49.5208 24.2557 48.9718 23.2776 47.764 23.2776C47.3775 23.2776 46.8241 23.5148 46.5343 23.8047ZM11.9942 33.9164C10.7539 35.6868 11.4211 39.528 12.9684 39.528C14.3057 39.528 14.824 38.5877 14.824 36.1616C14.824 34.3248 14.6492 33.7556 13.9746 33.3946C12.8309 32.7828 12.7786 32.7964 11.9942 33.9164ZM22.1806 33.4144C21.603 33.7508 21.412 34.4351 21.412 36.1681C21.412 38.5737 21.9316 39.528 23.2413 39.528C24.872 39.528 25.5418 35.772 24.2418 33.9164C23.4771 32.8241 23.2777 32.7753 22.1806 33.4144ZM41.9446 33.4144C41.3671 33.7508 41.176 34.4351 41.176 36.1681C41.176 38.5877 41.6951 39.528 43.0316 39.528C44.5789 39.528 45.2461 35.6868 44.0058 33.9164C43.2411 32.8241 43.0417 32.7753 41.9446 33.4144ZM16.8939 43.3144C16.7218 43.4865 16.5808 44.7558 16.5808 46.1354C16.5808 48.9511 17.3872 50.1672 18.7039 49.3367C19.2621 48.9845 19.4356 48.2101 19.4356 46.0682C19.4356 43.3899 19.3846 43.2551 18.3213 43.1312C17.7082 43.0596 17.0657 43.1422 16.8939 43.3144ZM36.658 43.3144C36.4858 43.4865 36.3448 44.7558 36.3448 46.1354C36.3448 48.9511 37.1512 50.1672 38.4679 49.3367C39.0261 48.9845 39.1996 48.2101 39.1996 46.0682C39.1996 43.3899 39.1487 43.2551 38.0854 43.1312C37.4722 43.0596 36.8297 43.1422 36.658 43.3144Z" fill="#E64545"/>
</svg>
