<svg width="62" height="56" viewBox="0 0 62 56" fill="none" xmlns="http://www.w3.org/2000/svg">
<path opacity="0.5" fill-rule="evenodd" clip-rule="evenodd" d="M6.3473 4.97426C7.80665 1.89127 11.1266 0 14.6717 0H47.3286C50.8736 0 54.1936 1.89127 55.653 4.97426L61.2431 16.7912C61.2433 16.7916 61.243 16.7909 61.2431 16.7912C63.1206 20.7557 61.3233 24.9113 57.8549 26.9574V52H59.9206C61.0615 52 61.9864 52.8954 61.9864 54C61.9864 55.1046 61.0615 56 59.9206 56H2.07963C0.938749 56 0.0138812 55.1046 0.0138812 54C0.0138812 52.8954 0.938749 52 2.07963 52H4.14538V26.959C0.676536 24.9136 -1.12034 20.7577 0.756669 16.7922C0.756749 16.792 0.756589 16.7923 0.756669 16.7922L6.3473 4.97426ZM8.27688 28.2299V52H33.0659V35C33.0659 33.6739 33.61 32.4021 34.5785 31.4645C35.547 30.5268 36.8606 30 38.2303 30H46.4933C47.8629 30 49.1765 30.5268 50.145 31.4645C51.1135 32.4021 51.6576 33.6739 51.6576 35V52H53.7234V28.2298C53.5954 28.2387 53.4667 28.2451 53.3371 28.249C53.3157 28.2497 53.2942 28.25 53.2728 28.25H53.021C50.1192 28.25 47.4332 27.0297 45.6809 25.0616C43.9282 27.0297 41.2416 28.25 38.34 28.25C35.4437 28.25 32.79 26.9679 31.0452 25.0136C29.2962 27.0095 26.593 28.25 23.6667 28.25C20.7461 28.25 18.0714 26.9462 16.327 24.9639C14.5828 26.9472 11.9073 28.25 8.98569 28.25H8.72747C8.7064 28.25 8.68532 28.2497 8.66425 28.2491C8.53433 28.2452 8.40519 28.2388 8.27688 28.2299ZM18.3913 19.7212C18.3913 21.8788 20.6333 24.25 23.6667 24.25C26.7458 24.25 28.9344 22.0689 28.9344 19.7212C28.9344 18.6167 29.8592 17.7213 31.0001 17.7213C32.141 17.7213 33.0659 18.6167 33.0659 19.7212C33.0659 21.8792 35.3071 24.25 38.34 24.25C41.422 24.25 43.6154 22.0662 43.6154 19.7212C43.6154 18.6167 44.5403 17.7213 45.6812 17.7213C46.822 17.7213 47.7469 18.6167 47.7469 19.7212C47.7469 22.0667 49.9395 24.25 53.021 24.25H53.2382C56.804 24.1252 58.6646 20.943 57.4878 18.4588L51.8971 6.64074C51.897 6.6406 51.8972 6.64088 51.8971 6.64074C51.1718 5.10895 49.4099 4 47.3286 4H14.6717C12.5903 4 10.8287 5.10853 10.1034 6.64032C10.1033 6.64046 10.1034 6.64018 10.1034 6.64032L4.51293 18.4578C3.33507 20.9458 5.19747 24.1273 8.76142 24.25H8.98569C12.0199 24.25 14.2598 21.8843 14.2598 19.7212C14.2598 18.6167 15.1847 17.7213 16.3256 17.7213C17.4664 17.7213 18.3913 18.6167 18.3913 19.7212ZM47.5261 52V35C47.5261 34.7348 47.4173 34.4804 47.2236 34.2929C47.0299 34.1054 46.7672 34 46.4933 34H38.2303C37.9563 34 37.6936 34.1054 37.4999 34.2929C37.3062 34.4804 37.1974 34.7348 37.1974 35V52H47.5261ZM15.507 34C15.2331 34 14.9704 34.1054 14.7767 34.2929C14.583 34.4804 14.4741 34.7348 14.4741 35V44H26.8686V35C26.8686 34.7348 26.7598 34.4804 26.5661 34.2929C26.3724 34.1054 26.1097 34 25.8358 34H15.507ZM11.8552 31.4645C12.8237 30.5268 14.1373 30 15.507 30H25.8358C27.2054 30 28.519 30.5268 29.4875 31.4645C30.456 32.4021 31.0001 33.6739 31.0001 35V46C31.0001 47.1046 30.0753 48 28.9344 48H12.4084C11.2675 48 10.3426 47.1046 10.3426 46V35C10.3426 33.6739 10.8867 32.4021 11.8552 31.4645Z" fill="#A66FE5"/>
</svg>
