<svg width="46" height="46" viewBox="0 0 46 46" fill="none" xmlns="http://www.w3.org/2000/svg">
<path fill-rule="evenodd" clip-rule="evenodd" d="M0 22.75C0 10.1867 10.1867 0 22.75 0C35.3133 0 45.5 10.1867 45.5 22.75C45.5 35.3133 35.3133 45.5 22.75 45.5C10.1867 45.5 0 35.3133 0 22.75ZM22.75 3.64C12.197 3.64 3.64 12.197 3.64 22.75C3.64 33.303 12.197 41.86 22.75 41.86C33.303 41.86 41.86 33.303 41.86 22.75C41.86 12.197 33.303 3.64 22.75 3.64Z" fill="#75A4FF"/>
<path fill-rule="evenodd" clip-rule="evenodd" d="M17.745 19.565C17.745 18.5598 18.5598 17.745 19.565 17.745H23.205C24.2101 17.745 25.025 18.5598 25.025 19.565V32.76C25.025 33.7651 24.2101 34.58 23.205 34.58C22.1998 34.58 21.385 33.7651 21.385 32.76V21.385H19.565C18.5598 21.385 17.745 20.5701 17.745 19.565Z" fill="#75A4FF"/>
<path fill-rule="evenodd" clip-rule="evenodd" d="M16.38 33.2151C16.38 32.2099 17.1949 31.3951 18.2 31.3951H28.21C29.2152 31.3951 30.03 32.2099 30.03 33.2151C30.03 34.2202 29.2152 35.0351 28.21 35.0351H18.2C17.1949 35.0351 16.38 34.2202 16.38 33.2151Z" fill="#75A4FF"/>
<path d="M22.75 9.32755C22.1651 9.32755 21.5933 9.50101 21.1069 9.82598C20.6205 10.151 20.2415 10.6129 20.0176 11.1533C19.7938 11.6937 19.7352 12.2883 19.8493 12.862C19.9634 13.4357 20.2451 13.9627 20.6587 14.3763C21.0723 14.7899 21.5993 15.0716 22.173 15.1857C22.7467 15.2998 23.3414 15.2413 23.8818 15.0174C24.4222 14.7936 24.8841 14.4145 25.2091 13.9282C25.5341 13.4418 25.7075 12.87 25.7075 12.2851C25.7075 11.5007 25.3959 10.7484 24.8413 10.1938C24.2866 9.63915 23.5344 9.32755 22.75 9.32755Z" fill="#75A4FF"/>
</svg>
