<svg width="38" height="32" viewBox="0 0 38 32" fill="none" xmlns="http://www.w3.org/2000/svg">
<path d="M0 9.49375V25C0 26.6576 0.65848 28.2473 1.83058 29.4194C3.00268 30.5915 4.5924 31.25 6.25 31.25H31.25C32.9076 31.25 34.4973 30.5915 35.6694 29.4194C36.8415 28.2473 37.5 26.6576 37.5 25V6.25C37.5 4.5924 36.8415 3.00268 35.6694 1.83058C34.4973 0.65848 32.9076 0 31.25 0H6.25C4.5924 0 3.00268 0.65848 1.83058 1.83058C0.65848 3.00268 0 4.5924 0 6.25V9.49375ZM6.25 3.125H31.25C32.0788 3.125 32.8737 3.45424 33.4597 4.04029C34.0458 4.62634 34.375 5.4212 34.375 6.25V8.5625L18.75 16.975L3.125 8.5625V6.25C3.125 5.4212 3.45424 4.62634 4.04029 4.04029C4.62634 3.45424 5.4212 3.125 6.25 3.125ZM3.125 12.1125L18.0094 20.125C18.237 20.2475 18.4915 20.3117 18.75 20.3117C19.0085 20.3117 19.263 20.2475 19.4906 20.125L34.375 12.1125V25C34.375 25.8288 34.0458 26.6237 33.4597 27.2097C32.8737 27.7958 32.0788 28.125 31.25 28.125H6.25C5.4212 28.125 4.62634 27.7958 4.04029 27.2097C3.45424 26.6237 3.125 25.8288 3.125 25V12.1125Z" fill="#FE7A00"/>
</svg>
