<svg width="36" height="44" viewBox="0 0 36 44" fill="none" xmlns="http://www.w3.org/2000/svg">
<path d="M18 25C16.4548 25 14.9444 24.5418 13.6596 23.6834C12.3749 22.8249 11.3735 21.6048 10.7822 20.1772C10.1909 18.7497 10.0362 17.1788 10.3376 15.6634C10.6391 14.1479 11.3831 12.7558 12.4757 11.6632C13.5683 10.5706 14.9604 9.82657 16.4759 9.52512C17.9913 9.22367 19.5622 9.37839 20.9897 9.96969C22.4173 10.561 23.6374 11.5624 24.4959 12.8471C25.3543 14.1319 25.8125 15.6423 25.8125 17.1875C25.81 19.2587 24.9861 21.2444 23.5215 22.709C22.0569 24.1736 20.0712 24.9975 18 25ZM18 12.5C17.0729 12.5 16.1666 12.7749 15.3958 13.29C14.6249 13.8051 14.0241 14.5371 13.6693 15.3937C13.3145 16.2502 13.2217 17.1927 13.4026 18.102C13.5834 19.0113 14.0299 19.8465 14.6854 20.5021C15.341 21.1576 16.1762 21.6041 17.0855 21.7849C17.9948 21.9658 18.9373 21.873 19.7938 21.5182C20.6504 21.1634 21.3825 20.5626 21.8975 19.7917C22.4126 19.0209 22.6875 18.1146 22.6875 17.1875C22.6863 15.9447 22.192 14.7531 21.3132 13.8743C20.4344 12.9955 19.2428 12.5012 18 12.5Z" fill="#FE7A00"/>
<path d="M18 43.75L4.81877 28.2047C4.63561 27.9713 4.45436 27.7364 4.27502 27.5C2.02343 24.534 0.807061 20.9113 0.812518 17.1875C0.812518 12.6291 2.62334 8.25738 5.84662 5.0341C9.0699 1.81082 13.4416 0 18 0C22.5584 0 26.9301 1.81082 30.1534 5.0341C33.3767 8.25738 35.1875 12.6291 35.1875 17.1875C35.193 20.9096 33.9772 24.5307 31.7266 27.4953L31.725 27.5C31.725 27.5 31.2563 28.1156 31.186 28.1984L18 43.75ZM6.76877 25.6172C6.77189 25.6172 7.13439 26.0984 7.21721 26.2016L18 38.9188L28.7969 26.1844C28.8656 26.0984 29.2313 25.6141 29.2328 25.6125C31.0721 23.1892 32.0661 20.2297 32.0625 17.1875C32.0625 13.4579 30.5809 9.88104 27.9437 7.24381C25.3065 4.60658 21.7296 3.125 18 3.125C14.2704 3.125 10.6936 4.60658 8.05633 7.24381C5.4191 9.88104 3.93752 13.4579 3.93752 17.1875C3.93424 20.2316 4.92936 23.1928 6.77033 25.6172H6.76877Z" fill="#FE7A00"/>
</svg>
