<svg width="54" height="41" viewBox="0 0 54 41" fill="none" xmlns="http://www.w3.org/2000/svg">
<path d="M33.75 3.375C34.6451 3.375 35.5035 3.73057 36.1365 4.36351C36.7694 4.99644 37.125 5.85489 37.125 6.74999V33.75C37.125 34.6451 36.7694 35.5035 36.1365 36.1364C35.5035 36.7694 34.6451 37.1249 33.75 37.1249H20.25C19.3549 37.1249 18.4964 36.7694 17.8635 36.1364C17.2306 35.5035 16.875 34.6451 16.875 33.75V6.74999C16.875 5.85489 17.2306 4.99644 17.8635 4.36351C18.4964 3.73057 19.3549 3.375 20.25 3.375H33.75ZM20.25 0C18.4598 0 16.7429 0.711157 15.477 1.97703C14.2112 3.24289 13.5 4.95978 13.5 6.74999V33.75C13.5 35.5402 14.2112 37.257 15.477 38.5229C16.7429 39.7888 18.4598 40.4999 20.25 40.4999H33.75C35.5402 40.4999 37.2571 39.7888 38.5229 38.5229C39.7888 37.257 40.5 35.5402 40.5 33.75V6.74999C40.5 4.95978 39.7888 3.24289 38.5229 1.97703C37.2571 0.711157 35.5402 0 33.75 0H20.25Z" fill="#FE7A00"/>
<path d="M27 33.75C27.8951 33.75 28.7535 33.3944 29.3865 32.7615C30.0194 32.1286 30.375 31.2701 30.375 30.375C30.375 29.4799 30.0194 28.6215 29.3865 27.9885C28.7535 27.3556 27.8951 27 27 27C26.1049 27 25.2464 27.3556 24.6135 27.9885C23.9806 28.6215 23.625 29.4799 23.625 30.375C23.625 31.2701 23.9806 32.1286 24.6135 32.7615C25.2464 33.3944 26.1049 33.75 27 33.75ZM5.39665 6.94581C5.59258 7.04948 5.76617 7.19074 5.9075 7.36152C6.04883 7.5323 6.15513 7.72925 6.22032 7.94112C6.28551 8.15299 6.30832 8.37563 6.28744 8.59632C6.26656 8.81701 6.20241 9.03142 6.09864 9.22731C4.30397 12.6239 3.36884 16.4085 3.37502 20.25C3.37502 24.2325 4.36052 27.9855 6.09864 31.2728C6.3081 31.6684 6.35181 32.131 6.22016 32.5589C6.08851 32.9868 5.79228 33.3448 5.39665 33.5543C5.00101 33.7637 4.53837 33.8074 4.11051 33.6758C3.68264 33.5441 3.3246 33.2479 3.11515 32.8523C1.06323 28.9689 -0.00630297 24.6421 2.7943e-05 20.25C2.7943e-05 15.7039 1.12728 11.4109 3.11515 7.64781C3.21882 7.45187 3.36008 7.27828 3.53086 7.13695C3.70164 6.99562 3.89859 6.88933 4.11046 6.82413C4.32233 6.75894 4.54497 6.73614 4.76566 6.75701C4.98635 6.77789 5.20076 6.84204 5.39665 6.94581ZM48.6033 6.94581C48.7992 6.84204 49.0136 6.77789 49.2343 6.75701C49.455 6.73614 49.6777 6.75894 49.8895 6.82413C50.1014 6.88933 50.2983 6.99562 50.4691 7.13695C50.6399 7.27828 50.7812 7.45187 50.8848 7.64781C52.9369 11.5311 54.0064 15.8579 54 20.25C54.0064 24.6422 52.9369 28.969 50.8848 32.8523C50.6754 33.2479 50.3173 33.5441 49.8895 33.6758C49.4616 33.8074 48.999 33.7637 48.6033 33.5543C48.2077 33.3448 47.9115 32.9868 47.7798 32.5589C47.6482 32.131 47.6919 31.6684 47.9013 31.2728C49.696 27.8762 50.6311 24.0916 50.625 20.25C50.625 16.2675 49.6395 12.5146 47.9013 9.22731C47.7976 9.03142 47.7334 8.81701 47.7125 8.59632C47.6917 8.37563 47.7145 8.15299 47.7797 7.94112C47.8449 7.72925 47.9512 7.5323 48.0925 7.36152C48.2338 7.19074 48.4074 7.04948 48.6033 6.94581ZM10.3174 11.9273C10.524 12.0079 10.7127 12.1284 10.8727 12.2819C11.0327 12.4354 11.1609 12.619 11.2499 12.8221C11.339 13.0252 11.3871 13.2439 11.3915 13.4656C11.396 13.6874 11.3567 13.9078 11.2759 14.1143C10.5129 16.0699 10.1226 18.1509 10.125 20.25C10.125 22.4168 10.53 24.4857 11.2725 26.3858C11.3667 26.5944 11.4175 26.8199 11.4217 27.0487C11.426 27.2776 11.3837 27.5048 11.2973 27.7168C11.211 27.9287 11.0825 28.1209 10.9195 28.2816C10.7566 28.4423 10.5627 28.5682 10.3496 28.6516C10.1365 28.7351 9.90861 28.7742 9.67987 28.7668C9.45114 28.7594 9.2263 28.7056 9.01903 28.6085C8.81176 28.5115 8.6264 28.3733 8.47421 28.2024C8.32203 28.0315 8.2062 27.8314 8.13377 27.6143C7.21734 25.2673 6.74802 22.7696 6.75002 20.25C6.75002 17.6547 7.23939 15.1707 8.13377 12.8858C8.2965 12.4693 8.61786 12.1345 9.02727 11.9548C9.43669 11.7751 9.90069 11.7652 10.3174 11.9273ZM43.6826 11.9273C43.8891 11.8465 44.1095 11.8072 44.3313 11.8117C44.553 11.8161 44.7716 11.8642 44.9748 11.9532C45.1779 12.0423 45.3615 12.1704 45.515 12.3305C45.6685 12.4905 45.789 12.6792 45.8696 12.8858C46.7606 15.1707 47.25 17.6547 47.25 20.25C47.25 22.8454 46.7606 25.3294 45.8662 27.6143C45.6882 28.0086 45.3655 28.3195 44.9648 28.4827C44.5641 28.6459 44.1161 28.6489 43.7132 28.4913C43.3103 28.3336 42.9834 28.0272 42.7999 27.6353C42.6165 27.2435 42.5905 26.7962 42.7275 26.3858C43.47 24.4857 43.875 22.4168 43.875 20.25C43.875 18.0833 43.47 16.0144 42.7275 14.1143C42.5641 13.6976 42.573 13.2331 42.7521 12.823C42.9312 12.4128 43.2659 12.0907 43.6826 11.9273Z" fill="#FE7A00"/>
</svg>
