<svg width="44" height="44" viewBox="0 0 44 44" fill="none" xmlns="http://www.w3.org/2000/svg">
<path fill-rule="evenodd" clip-rule="evenodd" d="M33.3362 30.0499C39.0255 22.7432 38.5116 12.1721 31.7946 5.45509C24.5211 -1.81836 12.7285 -1.81836 5.45509 5.45509C-1.81836 12.7285 -1.81836 24.5211 5.45509 31.7946C12.1721 38.5116 22.7432 39.0255 30.0499 33.3362C30.0815 33.3718 30.1143 33.4067 30.1484 33.4408L40.0257 43.3181C40.9349 44.2273 42.4089 44.2273 43.3181 43.3181C44.2273 42.4089 44.2273 40.9349 43.3181 40.0257L33.4408 30.1484C33.4067 30.1143 33.3718 30.0815 33.3362 30.0499ZM28.5021 8.74753C33.9572 14.2026 33.9572 23.0471 28.5021 28.5021C23.0471 33.9572 14.2026 33.9572 8.74753 28.5021C3.29244 23.0471 3.29244 14.2026 8.74753 8.74753C14.2026 3.29244 23.0471 3.29244 28.5021 8.74753Z" fill="#75A4FF"/>
</svg>
