<svg width="59" height="58" viewBox="0 0 59 58" fill="none" xmlns="http://www.w3.org/2000/svg">
<path opacity="0.5" fill-rule="evenodd" clip-rule="evenodd" d="M41.0397 0.354726C46.5204 -1.1226 52.1539 2.14933 53.6224 7.66277L57.0314 20.4615C58.5 25.9749 55.2475 31.642 49.7668 33.1194L37.0442 36.5488C31.5635 38.0261 25.9301 34.7542 24.4615 29.2407L21.0525 16.442C19.584 10.9286 22.8364 5.26145 28.3171 3.78412L41.0397 0.354726ZM49.0423 8.89735C48.2515 5.92858 45.2181 4.16677 42.267 4.96225L29.5444 8.39165C26.5932 9.18713 24.8419 12.2387 25.6326 15.2074L29.0417 28.0061C29.8324 30.9749 32.8658 32.7367 35.817 31.9412L48.5396 28.5118C51.4907 27.7164 53.242 24.6648 52.4513 21.696L49.0423 8.89735ZM9.07855 7.32379C8.66435 5.76872 7.07543 4.84587 5.52959 5.26255L2.98507 5.94843C1.7203 6.28935 0.420268 5.53429 0.0813734 4.26195C-0.257521 2.98962 0.493051 1.68182 1.75782 1.3409L4.30235 0.65502C8.37772 -0.443502 12.5667 1.98947 13.6587 6.08921L21.9797 37.3292C25.8516 37.2129 29.486 39.3238 31.322 42.7552L56.0149 36.0992C57.2797 35.7582 58.5797 36.5133 58.9186 37.7856C59.2575 39.058 58.507 40.3658 57.2422 40.7067L32.5492 47.3627C32.6881 52.0441 29.6291 56.3804 24.9366 57.6453C19.4559 59.1226 13.8225 55.8507 12.3539 50.3372C11.0966 45.6167 13.2999 40.7835 17.3995 38.5637L9.07855 7.32379ZM37.0647 11.0285C37.6721 10.8648 38.3192 10.9505 38.8638 11.2668L43.7033 14.0776C44.8372 14.7362 45.2258 16.1948 44.5711 17.3356C43.9385 18.4377 42.5636 18.8399 41.4485 18.2718L42.6956 22.9539C43.0345 24.2263 42.284 25.5341 41.0192 25.875C39.7544 26.2159 38.4544 25.4608 38.1155 24.1885L36.8684 19.5064C36.1851 20.5592 34.7945 20.9025 33.6989 20.2662C32.5649 19.6076 32.1764 18.1489 32.8311 17.0082L35.6251 12.1398C35.9395 11.5919 36.4574 11.1922 37.0647 11.0285ZM27.621 46.2219C26.8302 43.2532 23.7968 41.4914 20.8457 42.2868C17.8946 43.0823 16.1433 46.1338 16.9341 49.1027C17.7248 52.0714 20.7582 53.8332 23.7094 53.0377C26.6604 52.2423 28.4117 49.1908 27.621 46.2219Z" fill="#51971A"/>
</svg>
