<svg width="56" height="56" viewBox="0 0 56 56" fill="none" xmlns="http://www.w3.org/2000/svg">
<path fill-rule="evenodd" clip-rule="evenodd" d="M23.9937 0.409615C21.584 1.09284 20.1791 1.96639 17.5037 4.44496C15.953 5.88158 15.0709 6.33985 13.4418 6.55473C7.5884 7.32654 3.51335 12.1328 3.49278 18.2889C3.4849 20.685 3.32247 21.3244 2.54581 22.0164C1.24905 23.1719 0 26.0561 0 27.8949C0 31.3229 2.73976 34.8793 6.07274 35.7783C7.27713 36.1033 8.06692 36.7146 8.88867 37.9582C10.3439 40.1605 13.1634 41.8142 16.6898 42.5334L19.4629 43.0987L19.6818 48.9816C19.8022 52.217 20.06 55.1113 20.2549 55.4126C20.761 56.1958 35.239 56.1958 35.7451 55.4126C35.94 55.1113 36.1978 52.217 36.3182 48.9816L36.5371 43.0987L39.3101 42.5334C42.8366 41.8142 45.6561 40.1605 47.1113 37.9582C47.9331 36.7146 48.7229 36.1033 49.9273 35.7783C53.2602 34.8793 56 31.3229 56 27.8949C56 26.0561 54.751 23.1719 53.4542 22.0164C52.6775 21.3244 52.5151 20.685 52.5072 18.2889C52.4958 14.832 51.4434 12.1968 49.1178 9.80291C47.4786 8.11501 43.7608 6.40694 41.7264 6.40694C40.9808 6.40694 39.765 5.64127 38.1307 4.14325C36.7727 2.89827 34.8179 1.50462 33.7869 1.0468C31.3671 -0.0280377 26.6257 -0.336324 23.9937 0.409615ZM32.0637 3.9389C32.8386 4.26999 34.2238 5.14617 35.1423 5.88685L36.8116 7.23269L35.5092 7.90715C33.5347 8.93024 32.2966 10.6975 32.8408 11.7162C33.4511 12.8581 34.1971 12.7621 36.6076 11.2308C39.4936 9.39727 42.746 9.37929 45.5821 11.1812C48.7588 13.1989 50.2661 17.3614 49.0144 20.6591C48.5044 22.0028 49.0311 23.3166 50.2328 23.6986C51.4097 24.0727 52.5169 26.2771 52.5169 28.2461C52.5169 29.7012 52.2555 30.2265 50.9692 31.3575C49.9925 32.2166 48.9492 32.7187 48.141 32.7187C46.7624 32.7187 46.6192 32.8397 44.6018 35.7125C43.4491 37.3535 39.9984 39.6207 39.4656 39.087C39.3789 39.0002 40.3294 37.4136 41.5771 35.5612C43.161 33.2099 43.7766 31.9083 43.615 31.2501C42.4299 26.4135 42.2605 26.1596 40.2142 26.1473C39.5877 26.1438 38.1929 25.6707 37.1141 25.0962L35.1528 24.0516L33.2181 24.9866C30.516 26.2925 25.484 26.2925 22.7819 24.9866L20.8472 24.0516L18.8859 25.0962C17.8071 25.6707 16.4123 26.1438 15.7858 26.1473C13.7395 26.1596 13.5701 26.4135 12.385 31.2501C12.2234 31.9083 12.839 33.2099 14.4229 35.5612C15.6706 37.4136 16.6211 39.0002 16.5344 39.087C16.0016 39.6207 12.5509 37.3535 11.3981 35.7125C9.38076 32.8397 9.2376 32.7187 7.85897 32.7187C7.05078 32.7187 6.00751 32.2166 5.03077 31.3575C3.74451 30.2265 3.48314 29.7012 3.48314 28.2461C3.48314 26.2771 4.59034 24.0727 5.76715 23.6986C6.96892 23.3166 7.49559 22.0028 6.98555 20.6591C5.73388 17.3614 7.24123 13.1989 10.4179 11.1812C13.254 9.37929 16.5064 9.39727 19.3924 11.2308C21.8029 12.7621 22.5489 12.8581 23.1592 11.7162C23.7034 10.6975 22.4653 8.93024 20.4908 7.90715L19.1884 7.23269L20.8577 5.88728C21.7762 5.14705 23.1185 4.27832 23.8409 3.95688C25.5654 3.18857 30.2827 3.17849 32.0637 3.9389ZM23.1776 29.774C23.1706 30.7936 22.9504 30.6076 21.8231 28.629C21.4168 27.9164 21.4663 27.8817 22.2753 28.3154C22.7801 28.586 23.1811 29.235 23.1776 29.774ZM33.8258 29.2425C33.2002 30.3077 33.0019 30.4287 32.8775 29.8196C32.7913 29.396 33.075 28.7895 33.5084 28.472C34.6581 27.63 34.7054 27.744 33.8258 29.2425ZM20.9059 33.4142C23.3742 37.1601 23.7862 37.5824 24.8461 37.4601C26.0207 37.3241 26.0308 37.2939 26.1564 33.4861L26.2829 29.649H28H29.7171L29.8436 33.4861C29.9692 37.2939 29.9793 37.3241 31.1539 37.4601C32.2138 37.5824 32.6258 37.1601 35.0941 33.4142C37.995 29.0118 39.0107 28.3509 39.8933 30.2914C40.339 31.2711 40.0295 31.9144 36.6006 37.1329L32.8158 42.8935V47.673V52.4525H28H23.1842V47.673V42.8935L19.3994 37.1329C15.9705 31.9144 15.661 31.2711 16.1067 30.2914C16.9893 28.3509 18.005 29.0118 20.9059 33.4142Z" fill="#247B27"/>
</svg>
