<svg width="197" height="81" fill="none" xmlns="http://www.w3.org/2000/svg"><path d="M0 17.7h30.05v9.04H10.72v7.93h14.12v8.42H10.72v16.97H0V17.7z" fill="url(#paint0_linear)"/><path d="M33.07 17.7H52.1c4.97 0 8.84 1.26 11.63 3.77 2.83 2.5 4.24 6.1 4.24 10.78 0 3.15-.69 5.84-2.06 8.06a12.53 12.53 0 01-5.82 4.97l7.52 14.78H56.58l-6.72-13.27H43.8v13.27H33.07V17.7zm17.15 20.06c2.14 0 3.8-.4 4.97-1.2 1.17-.86 1.75-2.3 1.75-4.31 0-2.1-.58-3.53-1.75-4.3-1.13-.8-2.79-1.21-4.97-1.21H43.8v11.02h6.42z" fill="url(#paint1_linear)"/><path d="M91.2 60.97c-6.38 0-11.18-1.7-14.42-5.1-3.23-3.42-4.84-7.95-4.84-13.56V17.7h10.72v24.72c0 2.83.75 4.97 2.24 6.42 1.54 1.45 3.64 2.18 6.3 2.18 2.67 0 4.75-.73 6.24-2.18 1.5-1.45 2.25-3.6 2.25-6.42V17.7h10.72v24.6c0 5.65-1.62 10.18-4.85 13.57-3.19 3.4-7.97 5.09-14.36 5.09z" fill="url(#paint2_linear)"/><path d="M125.36 26.74h-11.93V17.7h34.65v9.03h-12v33.32h-10.72V26.74z" fill="url(#paint3_linear)"/><path d="M4.83 81c-.73 0-1.54-.12-2.42-.37a5.63 5.63 0 01-1.98-.87v-.66c.65.4 1.36.72 2.11.95.77.21 1.55.32 2.32.32 2.56 0 3.85-.86 3.85-2.58 0-.57-.11-1.03-.32-1.4a2.7 2.7 0 00-1.19-1.03c-.56-.3-1.4-.6-2.5-.9a17.92 17.92 0 01-2.45-.8A3.28 3.28 0 01.91 72.6a2.96 2.96 0 01-.48-1.77c0-1.07.42-1.88 1.24-2.42A5.89 5.89 0 015 67.57c1.53 0 2.75.24 3.66.73v.66A7.8 7.8 0 005 68.2c-1.21 0-2.16.22-2.84.66a2.2 2.2 0 00-1.03 1.97c0 .6.11 1.07.34 1.42.25.36.64.65 1.19.9.56.25 1.4.52 2.53.82 1.52.4 2.6.9 3.24 1.47.65.58.97 1.36.97 2.35 0 .98-.39 1.76-1.16 2.34-.75.58-1.89.87-3.4.87zM18.27 81c-2.25 0-3.99-.59-5.22-1.76-1.21-1.18-1.82-2.83-1.82-4.96 0-2.07.56-3.7 1.66-4.9 1.13-1.2 2.7-1.81 4.74-1.81 1.4 0 2.57.27 3.53.81a5.2 5.2 0 012.16 2.24 7 7 0 01.74 3.27v.66H11.9c0 1.9.57 3.34 1.71 4.34 1.15 1 2.7 1.5 4.67 1.5a13.23 13.23 0 004.45-.79v.64a9 9 0 01-2.03.52c-.84.16-1.65.24-2.42.24zm5.13-7.06c0-1.74-.48-3.13-1.45-4.19-.94-1.05-2.38-1.58-4.32-1.58-1.91 0-3.35.55-4.32 1.63a6.07 6.07 0 00-1.42 4.14H23.4zM26.44 67.96h.74v2.9a4.83 4.83 0 012.37-2.21 8.98 8.98 0 013.69-.69v.63c-3.23 0-5.25 1.24-6.06 3.72v8.3h-.74V67.95zM33.63 67.96h.74l4.58 11.54 4.58-11.54h.74L39.24 80.6h-.58l-5.03-12.64zM47.34 64.7a.66.66 0 01-.48-.22.65.65 0 01-.2-.47c0-.2.06-.35.2-.47.14-.14.3-.22.48-.22.2 0 .35.08.47.22a.6.6 0 01.21.47c0 .18-.07.33-.2.47a.6.6 0 01-.48.21zm-.37 3.26h.74V80.6h-.74V67.96zM56.98 81a6.83 6.83 0 01-3.32-.82c-1-.54-1.8-1.32-2.4-2.34a7.01 7.01 0 01-.87-3.53c0-1.34.3-2.51.87-3.53.6-1.02 1.4-1.8 2.42-2.37a7.01 7.01 0 013.4-.84c.93 0 1.74.08 2.43.26.7.17 1.34.47 1.92.9v.65a5.83 5.83 0 00-1.95-.92 9.71 9.71 0 00-2.4-.26c-1.12 0-2.14.24-3.05.74-.92.49-1.64 1.2-2.16 2.13a6.46 6.46 0 00-.8 3.24c0 1.23.26 2.3.77 3.21a5.47 5.47 0 002.13 2.11c.92.5 1.92.74 3 .74 1 0 1.86-.1 2.56-.3a7.8 7.8 0 002.08-1v.67a6.1 6.1 0 01-2.05.94c-.74.21-1.6.32-2.58.32zM70.49 81c-2.25 0-3.99-.59-5.22-1.76-1.21-1.18-1.82-2.83-1.82-4.96 0-2.07.56-3.7 1.66-4.9 1.13-1.2 2.7-1.81 4.74-1.81 1.4 0 2.57.27 3.53.81a5.2 5.2 0 012.16 2.24 7 7 0 01.74 3.27v.66H64.11c0 1.9.57 3.34 1.71 4.34 1.15 1 2.7 1.5 4.67 1.5a13.23 13.23 0 004.45-.79v.64a9 9 0 01-2.03.52c-.84.16-1.65.24-2.42.24zm5.13-7.06c0-1.74-.48-3.13-1.45-4.19-.94-1.05-2.38-1.58-4.32-1.58-1.91 0-3.35.55-4.32 1.63a6.07 6.07 0 00-1.42 4.14h11.51z" fill="#FF1607"/><path d="M170.1 17.59L152.53 0s7.18.38 12.1 4.54 5.49 13.05 5.49 13.05z" fill="url(#paint4_linear)"/><path d="M170.1 17.59L152.53 0s.38 7.19 4.54 12.1c4.16 4.92 13.05 5.49 13.05 5.49z" fill="url(#paint5_linear)"/><path d="M170.54 58.17c0 1.87-1.52 3.41-3.36 3.12a21.37 21.37 0 01-11.87-6.1 21.78 21.78 0 01-6.31-15.4 21.97 21.97 0 016.31-15.39 21.53 21.53 0 0111.87-6.1c1.84-.3 3.36 1.24 3.36 3.11v36.76z" fill="#FF7E07"/><path d="M171.26 33.94V20.58c0-1.26.73-2.4 1.98-2.52 1.4-.12 3.54.02 6.38 1.14 3.21 1.27 4.62 2.96 5.24 4.13.44.85.1 1.81-.58 2.5l-9.11 9.38c-.4.41-.9.75-1.46.82-.83.1-1.5-.08-2.01-.64-.35-.39-.44-.93-.44-1.45z" fill="url(#paint6_linear)"/><path d="M171.26 45.65V59c0 1.26.73 2.4 1.98 2.51 1.4.12 3.54-.02 6.38-1.14 3.21-1.27 4.62-2.95 5.24-4.13.44-.85.1-1.8-.58-2.5l-9.11-9.38c-.4-.4-.9-.74-1.46-.81-.83-.1-1.5.08-2.01.64-.35.38-.44.93-.44 1.45z" fill="url(#paint7_linear)"/><path d="M174.97 43.38l9.43 9.43c.9.9 2.22 1.19 3.19.38a14.3 14.3 0 003.75-5.36c1.39-3.18 1.2-5.37.82-6.65-.29-.92-1.22-1.35-2.18-1.36l-13.14-.13c-.57 0-1.15.1-1.6.46-.67.51-1.02 1.12-1 1.88.03.53.35.98.72 1.35z" fill="url(#paint8_linear)"/><path d="M175.4 35.55l9.44-9.44c.9-.89 2.22-1.18 3.2-.37 1.08.9 2.5 2.53 3.74 5.35 1.4 3.19 1.21 5.38.82 6.65-.28.92-1.22 1.36-2.18 1.37l-13.14.13c-.57 0-1.15-.11-1.6-.46-.67-.52-1.02-1.13-.99-1.89.02-.52.35-.97.72-1.34z" fill="url(#paint9_linear)"/><path d="M92.67 64a3.35 3.35 0 00-3.34 3.35V80c1.85 0 3.34-1.5 3.34-3.35V64z" fill="url(#paint10_linear)"/><path d="M83 73.67c0-1.85 1.5-3.34 3.35-3.34H99c0 1.85-1.5 3.34-3.35 3.34H83z" fill="url(#paint11_linear)"/><defs><linearGradient id="paint0_linear" x1="73.14" y1="-5.8" x2="73.14" y2="85.87" gradientUnits="userSpaceOnUse"><stop stop-color="#FF7E07"/><stop offset="1" stop-color="#EA1E1E"/></linearGradient><linearGradient id="paint1_linear" x1="73.14" y1="-5.8" x2="73.14" y2="85.87" gradientUnits="userSpaceOnUse"><stop stop-color="#FF7E07"/><stop offset="1" stop-color="#EA1E1E"/></linearGradient><linearGradient id="paint2_linear" x1="73.14" y1="-5.8" x2="73.14" y2="85.87" gradientUnits="userSpaceOnUse"><stop stop-color="#FF7E07"/><stop offset="1" stop-color="#EA1E1E"/></linearGradient><linearGradient id="paint3_linear" x1="73.14" y1="-5.8" x2="73.14" y2="85.87" gradientUnits="userSpaceOnUse"><stop stop-color="#FF7E07"/><stop offset="1" stop-color="#EA1E1E"/></linearGradient><linearGradient id="paint4_linear" x1="153.09" y1="0" x2="169.92" y2="17.02" gradientUnits="userSpaceOnUse"><stop stop-color="#CBDD25"/><stop offset="1" stop-color="#7CC245"/></linearGradient><linearGradient id="paint5_linear" x1="152.52" y1=".57" x2="169.54" y2="17.4" gradientUnits="userSpaceOnUse"><stop stop-color="#919B31"/><stop offset="1" stop-color="#51971A"/></linearGradient><linearGradient id="paint6_linear" x1="178.3" y1="18.03" x2="178.3" y2="36.05" gradientUnits="userSpaceOnUse"><stop stop-color="#FF7E07"/><stop offset="1" stop-color="#FF1607"/></linearGradient><linearGradient id="paint7_linear" x1="178.3" y1="61.56" x2="178.3" y2="43.53" gradientUnits="userSpaceOnUse"><stop stop-color="#FF7E07"/><stop offset="1" stop-color="#FF1607"/></linearGradient><linearGradient id="paint8_linear" x1="191.23" y1="49.6" x2="178.48" y2="36.86" gradientUnits="userSpaceOnUse"><stop stop-color="#FF7E07"/><stop offset="1" stop-color="#FF1607"/></linearGradient><linearGradient id="paint9_linear" x1="191.67" y1="29.32" x2="178.93" y2="42.07" gradientUnits="userSpaceOnUse"><stop stop-color="#FF7E07"/><stop offset="1" stop-color="#FF1607"/></linearGradient><linearGradient id="paint10_linear" x1="91" y1="70.33" x2="91" y2="73.67" gradientUnits="userSpaceOnUse"><stop stop-color="#FE7A00"/><stop offset="1" stop-color="#FF0606"/></linearGradient><linearGradient id="paint11_linear" x1="91" y1="70.33" x2="91" y2="73.67" gradientUnits="userSpaceOnUse"><stop stop-color="#FE7A00"/><stop offset="1" stop-color="#FF0606"/></linearGradient></defs></svg>